<svg width="28" height="30" viewBox="0 0 28 30" fill="none" xmlns="http://www.w3.org/2000/svg">
<rect y="0.947754" width="28" height="28.3167" rx="4" fill="black"/>
<path d="M22.8737 18.9541V19.9441C22.8737 20.5992 22.4432 21.1595 21.8399 21.3783C21.8402 21.4032 21.8408 21.4279 21.8408 21.4529V24.1523C23.0952 23.9022 24.0408 22.8322 24.0408 21.554V18.954L22.8737 18.9541Z" fill="#FFEBB9"/>
<path d="M14.7675 11.5143V10.4792C14.7675 9.58319 14.4219 8.71474 13.794 8.0335C13.2062 7.3958 12.4331 6.9906 11.5976 6.87816C11.4127 6.7062 11.075 6.39248 10.7364 6.07935C10.4436 5.80843 10.2096 5.59264 10.0403 5.43798C9.94329 5.34929 9.86196 5.2754 9.80428 5.22395C9.67809 5.11136 9.44341 4.90158 9.09566 5.03718L8.7235 5.18261L8.77233 7.40562L8.68062 7.46924C8.08217 7.8847 7.68132 8.52417 7.57833 9.22608L5.98195 10.2492L5.97661 10.9521C5.9728 11.4882 6.18703 11.9928 6.5801 12.3732C6.97332 12.7537 7.497 12.9632 8.05501 12.9632H9.27068V13.9939C9.27068 14.506 9.35628 15.0119 9.52474 15.4977L10.4259 18.095V22.0402C9.48049 22.2537 8.77309 23.0704 8.77095 24.0425L8.76897 24.2062L12.2484 24.2067C12.3436 23.3312 13.0121 22.6164 13.8855 22.4168V21.7289C13.8855 19.8465 15.4793 18.3153 17.4384 18.3153H17.5243V19.4366H17.4384C16.1229 19.4366 15.0527 20.4649 15.0527 21.7289V23.4825H14.3812C13.9194 23.4825 13.5311 23.7922 13.4295 24.2068L20.7081 24.208V21.453C20.7081 19.0055 19.7532 16.67 18.0193 14.877L14.7675 11.5143Z" fill="#FFEBB9"/>
</svg>
